<svg xmlns="http://www.w3.org/2000/svg" xmlns:xlink="http://www.w3.org/1999/xlink" width="500" zoomAndPan="magnify" viewBox="0 0 375 374.999991" height="500" preserveAspectRatio="xMidYMid meet" version="1.2"><defs><clipPath id="4c059d5131"><path d="M 65.8125 172.777344 L 309.1875 172.777344 L 309.1875 202.222656 L 65.8125 202.222656 Z M 65.8125 172.777344 "/></clipPath></defs><g id="96527717a9"><g style="fill:#008b8b;fill-opacity:1;"><g transform="translate(91.183592, 222.000631)"><path style="stroke:none" d="M 4.09375 0 L 4.09375 -3.90625 C 11.613281 -4.070312 16.34375 -6.921875 18.28125 -12.453125 L 44.5625 -88.328125 C 44.894531 -89.367188 45.25 -90.050781 45.625 -90.375 C 46 -90.707031 46.660156 -90.875 47.609375 -90.875 C 48.097656 -90.875 48.5 -90.832031 48.8125 -90.75 C 49.125 -90.664062 49.382812 -90.476562 49.59375 -90.1875 C 49.800781 -89.90625 49.945312 -89.679688 50.03125 -89.515625 C 50.113281 -89.347656 50.273438 -88.953125 50.515625 -88.328125 L 77.921875 -8.984375 C 78.578125 -6.878906 79.585938 -5.503906 80.953125 -4.859375 C 82.316406 -4.222656 84.921875 -3.90625 88.765625 -3.90625 L 91 -3.90625 L 91 0 C 85.664062 -0.25 80.128906 -0.375 74.390625 -0.375 C 65.253906 -0.375 59.15625 -0.25 56.09375 0 L 56.09375 -3.90625 C 63.125 -3.90625 66.640625 -5.1875 66.640625 -7.75 C 66.640625 -7.914062 66.515625 -8.515625 66.265625 -9.546875 L 59.578125 -28.953125 L 28.203125 -28.953125 L 22.3125 -12.328125 C 22.144531 -12.003906 22.0625 -11.367188 22.0625 -10.421875 C 22.0625 -8.640625 22.890625 -7.109375 24.546875 -5.828125 C 26.203125 -4.546875 28.554688 -3.90625 31.609375 -3.90625 L 31.609375 0 C 23.472656 -0.25 18.597656 -0.375 16.984375 -0.375 C 14.210938 -0.375 9.914062 -0.25 4.09375 0 Z M 29.5625 -32.859375 L 58.140625 -32.859375 L 43.828125 -74.140625 Z M 29.5625 -32.859375 "/></g></g><g style="fill:#942222;fill-opacity:1;"><g transform="translate(163.588806, 222.000631)"><path style="stroke:none" d="M 2.296875 -82.75 L 2.296875 -86.71875 C 3.492188 -86.71875 5.164062 -86.675781 7.3125 -86.59375 C 9.457031 -86.507812 11.378906 -86.445312 13.078125 -86.40625 C 14.773438 -86.363281 16.347656 -86.34375 17.796875 -86.34375 C 26.765625 -86.34375 32.773438 -86.46875 35.828125 -86.71875 L 35.828125 -82.75 C 28.722656 -82.75 25.171875 -81.488281 25.171875 -78.96875 C 25.171875 -78.394531 25.253906 -77.835938 25.421875 -77.296875 L 45.8125 -14.875 L 63.484375 -69.296875 L 60.6875 -78.234375 C 60.019531 -80.335938 58.960938 -81.613281 57.515625 -82.0625 C 56.078125 -82.519531 53.332031 -82.75 49.28125 -82.75 L 49.28125 -86.71875 C 50.476562 -86.71875 52.148438 -86.675781 54.296875 -86.59375 C 56.453125 -86.507812 58.375 -86.445312 60.0625 -86.40625 C 61.757812 -86.363281 63.3125 -86.34375 64.71875 -86.34375 C 73.6875 -86.34375 79.695312 -86.46875 82.75 -86.71875 L 82.75 -82.75 C 75.644531 -82.75 72.09375 -81.488281 72.09375 -78.96875 C 72.09375 -78.726562 72.21875 -78.085938 72.46875 -77.046875 L 92.796875 -14.875 L 111.828125 -73.515625 C 112.242188 -74.796875 112.472656 -75.644531 112.515625 -76.0625 C 112.515625 -77.59375 111.625 -79.066406 109.84375 -80.484375 C 108.0625 -81.910156 105.25 -82.664062 101.40625 -82.75 L 101.40625 -86.71875 C 108.019531 -86.46875 113.0625 -86.34375 116.53125 -86.34375 C 120.414062 -86.34375 124.257812 -86.46875 128.0625 -86.71875 L 128.0625 -82.75 C 121.375 -82.75 117.160156 -79.921875 115.421875 -74.265625 L 91.125 0.25 C 90.957031 0.90625 90.8125 1.390625 90.6875 1.703125 C 90.5625 2.015625 90.332031 2.273438 90 2.484375 C 89.675781 2.691406 89.222656 2.796875 88.640625 2.796875 C 87.523438 2.796875 86.71875 1.988281 86.21875 0.375 L 65.15625 -64.21875 L 44.203125 0.25 C 44.035156 0.90625 43.878906 1.390625 43.734375 1.703125 C 43.585938 2.015625 43.347656 2.273438 43.015625 2.484375 C 42.691406 2.691406 42.238281 2.796875 41.65625 2.796875 C 40.539062 2.796875 39.734375 1.988281 39.234375 0.375 L 13.828125 -77.421875 C 13.078125 -79.859375 12.132812 -81.351562 11 -81.90625 C 9.863281 -82.46875 6.960938 -82.75 2.296875 -82.75 Z M 2.296875 -82.75 "/></g></g><g clip-rule="nonzero" clip-path="url(#4c059d5131)"><path style=" stroke:none;fill-rule:nonzero;fill:#ffffff;fill-opacity:1;" d="M 65.8125 172.777344 L 309.203125 172.777344 L 309.203125 202.222656 L 65.8125 202.222656 Z M 65.8125 172.777344 "/></g><g style="fill:#353839;fill-opacity:1;"><g transform="translate(96.086534, 191.899785)"><path style="stroke:none" d="M 0.53125 0 L 0.53125 -0.515625 C 1.507812 -0.535156 2.128906 -0.90625 2.390625 -1.625 L 5.8125 -11.53125 C 5.863281 -11.664062 5.910156 -11.753906 5.953125 -11.796875 C 6.003906 -11.835938 6.09375 -11.859375 6.21875 -11.859375 C 6.28125 -11.859375 6.332031 -11.851562 6.375 -11.84375 C 6.414062 -11.832031 6.445312 -11.804688 6.46875 -11.765625 C 6.5 -11.734375 6.519531 -11.707031 6.53125 -11.6875 C 6.539062 -11.664062 6.5625 -11.613281 6.59375 -11.53125 L 10.171875 -1.171875 C 10.253906 -0.898438 10.382812 -0.722656 10.5625 -0.640625 C 10.75 -0.554688 11.09375 -0.515625 11.59375 -0.515625 L 11.890625 -0.515625 L 11.890625 0 C 11.191406 -0.03125 10.46875 -0.046875 9.71875 -0.046875 C 8.519531 -0.046875 7.722656 -0.03125 7.328125 0 L 7.328125 -0.515625 C 8.242188 -0.515625 8.703125 -0.679688 8.703125 -1.015625 C 8.703125 -1.035156 8.6875 -1.113281 8.65625 -1.25 L 7.78125 -3.78125 L 3.6875 -3.78125 L 2.921875 -1.609375 C 2.890625 -1.566406 2.875 -1.484375 2.875 -1.359375 C 2.875 -1.128906 2.984375 -0.929688 3.203125 -0.765625 C 3.421875 -0.597656 3.726562 -0.515625 4.125 -0.515625 L 4.125 0 C 3.0625 -0.03125 2.425781 -0.046875 2.21875 -0.046875 C 1.851562 -0.046875 1.289062 -0.03125 0.53125 0 Z M 3.859375 -4.296875 L 7.59375 -4.296875 L 5.71875 -9.6875 Z M 3.859375 -4.296875 "/></g></g><g style="fill:#353839;fill-opacity:1;"><g transform="translate(111.071495, 191.899785)"><path style="stroke:none" d="M 0.59375 0 L 0.59375 -0.515625 L 1 -0.515625 C 1.59375 -0.515625 1.957031 -0.5625 2.09375 -0.65625 C 2.238281 -0.757812 2.3125 -0.972656 2.3125 -1.296875 L 2.3125 -10.03125 C 2.3125 -10.34375 2.238281 -10.550781 2.09375 -10.65625 C 1.957031 -10.757812 1.59375 -10.8125 1 -10.8125 L 0.59375 -10.8125 L 0.59375 -11.328125 L 6.65625 -11.328125 C 7.707031 -11.328125 8.582031 -11.039062 9.28125 -10.46875 C 9.988281 -9.90625 10.34375 -9.257812 10.34375 -8.53125 C 10.34375 -7.914062 10.082031 -7.363281 9.5625 -6.875 C 9.050781 -6.394531 8.394531 -6.078125 7.59375 -5.921875 C 8.507812 -5.816406 9.269531 -5.488281 9.875 -4.9375 C 10.488281 -4.382812 10.796875 -3.75 10.796875 -3.03125 C 10.796875 -2.226562 10.445312 -1.519531 9.75 -0.90625 C 9.050781 -0.300781 8.164062 0 7.09375 0 Z M 3.6875 -1.171875 C 3.6875 -0.890625 3.722656 -0.707031 3.796875 -0.625 C 3.878906 -0.550781 4.113281 -0.515625 4.5 -0.515625 L 6.5625 -0.515625 C 7.351562 -0.515625 7.976562 -0.773438 8.4375 -1.296875 C 8.894531 -1.816406 9.125 -2.398438 9.125 -3.046875 C 9.125 -3.703125 8.921875 -4.304688 8.515625 -4.859375 C 8.117188 -5.421875 7.546875 -5.703125 6.796875 -5.703125 L 3.6875 -5.703125 Z M 3.6875 -6.078125 L 6.09375 -6.078125 C 6.9375 -6.078125 7.585938 -6.332031 8.046875 -6.84375 C 8.503906 -7.351562 8.734375 -7.914062 8.734375 -8.53125 C 8.734375 -9.0625 8.550781 -9.570312 8.1875 -10.0625 C 7.820312 -10.5625 7.273438 -10.8125 6.546875 -10.8125 L 4.5 -10.8125 C 4.113281 -10.8125 3.878906 -10.769531 3.796875 -10.6875 C 3.722656 -10.613281 3.6875 -10.429688 3.6875 -10.140625 Z M 3.6875 -6.078125 "/></g></g><g style="fill:#353839;fill-opacity:1;"><g transform="translate(125.352375, 191.899785)"><path style="stroke:none" d="M 0.578125 0 L 0.578125 -0.515625 L 0.984375 -0.515625 C 1.578125 -0.515625 1.941406 -0.5625 2.078125 -0.65625 C 2.222656 -0.757812 2.296875 -0.972656 2.296875 -1.296875 L 2.296875 -10.03125 C 2.296875 -10.34375 2.222656 -10.550781 2.078125 -10.65625 C 1.941406 -10.757812 1.578125 -10.8125 0.984375 -10.8125 L 0.578125 -10.8125 L 0.578125 -11.328125 L 6.640625 -11.328125 C 8.054688 -11.328125 9.253906 -10.757812 10.234375 -9.625 C 11.222656 -8.5 11.71875 -7.144531 11.71875 -5.5625 C 11.71875 -4.019531 11.222656 -2.707031 10.234375 -1.625 C 9.242188 -0.539062 8.046875 0 6.640625 0 Z M 3.71875 -1.171875 C 3.71875 -0.890625 3.753906 -0.707031 3.828125 -0.625 C 3.910156 -0.550781 4.144531 -0.515625 4.53125 -0.515625 L 6.203125 -0.515625 C 6.929688 -0.515625 7.539062 -0.660156 8.03125 -0.953125 C 8.519531 -1.253906 8.890625 -1.578125 9.140625 -1.921875 C 9.753906 -2.753906 10.0625 -3.96875 10.0625 -5.5625 C 10.0625 -7.25 9.773438 -8.484375 9.203125 -9.265625 C 8.460938 -10.296875 7.457031 -10.8125 6.1875 -10.8125 L 4.53125 -10.8125 C 4.144531 -10.8125 3.910156 -10.769531 3.828125 -10.6875 C 3.753906 -10.613281 3.71875 -10.429688 3.71875 -10.140625 Z M 3.71875 -1.171875 "/></g></g><g style="fill:#353839;fill-opacity:1;"><g transform="translate(140.547752, 191.899785)"><path style="stroke:none" d="M 0.53125 0 L 0.53125 -0.515625 C 1.507812 -0.535156 2.128906 -0.90625 2.390625 -1.625 L 5.8125 -11.53125 C 5.863281 -11.664062 5.910156 -11.753906 5.953125 -11.796875 C 6.003906 -11.835938 6.09375 -11.859375 6.21875 -11.859375 C 6.28125 -11.859375 6.332031 -11.851562 6.375 -11.84375 C 6.414062 -11.832031 6.445312 -11.804688 6.46875 -11.765625 C 6.5 -11.734375 6.519531 -11.707031 6.53125 -11.6875 C 6.539062 -11.664062 6.5625 -11.613281 6.59375 -11.53125 L 10.171875 -1.171875 C 10.253906 -0.898438 10.382812 -0.722656 10.5625 -0.640625 C 10.75 -0.554688 11.09375 -0.515625 11.59375 -0.515625 L 11.890625 -0.515625 L 11.890625 0 C 11.191406 -0.03125 10.46875 -0.046875 9.71875 -0.046875 C 8.519531 -0.046875 7.722656 -0.03125 7.328125 0 L 7.328125 -0.515625 C 8.242188 -0.515625 8.703125 -0.679688 8.703125 -1.015625 C 8.703125 -1.035156 8.6875 -1.113281 8.65625 -1.25 L 7.78125 -3.78125 L 3.6875 -3.78125 L 2.921875 -1.609375 C 2.890625 -1.566406 2.875 -1.484375 2.875 -1.359375 C 2.875 -1.128906 2.984375 -0.929688 3.203125 -0.765625 C 3.421875 -0.597656 3.726562 -0.515625 4.125 -0.515625 L 4.125 0 C 3.0625 -0.03125 2.425781 -0.046875 2.21875 -0.046875 C 1.851562 -0.046875 1.289062 -0.03125 0.53125 0 Z M 3.859375 -4.296875 L 7.59375 -4.296875 L 5.71875 -9.6875 Z M 3.859375 -4.296875 "/></g></g><g style="fill:#353839;fill-opacity:1;"><g transform="translate(155.532713, 191.899785)"><path style="stroke:none" d="M 0.546875 0 L 0.546875 -0.515625 L 0.953125 -0.515625 C 1.546875 -0.515625 1.910156 -0.5625 2.046875 -0.65625 C 2.191406 -0.757812 2.265625 -0.972656 2.265625 -1.296875 L 2.265625 -10.03125 C 2.265625 -10.34375 2.191406 -10.550781 2.046875 -10.65625 C 1.910156 -10.757812 1.546875 -10.8125 0.953125 -10.8125 L 0.546875 -10.8125 L 0.546875 -11.328125 C 0.941406 -11.296875 1.78125 -11.28125 3.0625 -11.28125 C 4.519531 -11.28125 5.453125 -11.296875 5.859375 -11.328125 L 5.859375 -10.8125 L 5.296875 -10.8125 C 4.796875 -10.8125 4.425781 -10.773438 4.1875 -10.703125 C 3.957031 -10.640625 3.820312 -10.5625 3.78125 -10.46875 C 3.75 -10.382812 3.734375 -10.234375 3.734375 -10.015625 L 3.734375 -1.171875 C 3.734375 -0.890625 3.773438 -0.707031 3.859375 -0.625 C 3.941406 -0.550781 4.171875 -0.515625 4.546875 -0.515625 L 5.90625 -0.515625 C 6.46875 -0.515625 6.945312 -0.597656 7.34375 -0.765625 C 7.75 -0.929688 8.0625 -1.117188 8.28125 -1.328125 C 8.5 -1.535156 8.675781 -1.835938 8.8125 -2.234375 C 8.957031 -2.628906 9.050781 -2.953125 9.09375 -3.203125 C 9.144531 -3.460938 9.191406 -3.820312 9.234375 -4.28125 L 9.65625 -4.28125 L 9.1875 0 Z M 0.546875 0 "/></g></g><g style="fill:#353839;fill-opacity:1;"><g transform="translate(168.445895, 191.899785)"><path style="stroke:none" d="M 0.546875 0 L 0.546875 -0.515625 L 0.953125 -0.515625 C 1.546875 -0.515625 1.910156 -0.5625 2.046875 -0.65625 C 2.191406 -0.757812 2.265625 -0.972656 2.265625 -1.296875 L 2.265625 -10.03125 C 2.265625 -10.34375 2.191406 -10.550781 2.046875 -10.65625 C 1.910156 -10.757812 1.546875 -10.8125 0.953125 -10.8125 L 0.546875 -10.8125 L 0.546875 -11.328125 C 0.941406 -11.296875 1.78125 -11.28125 3.0625 -11.28125 C 4.519531 -11.28125 5.453125 -11.296875 5.859375 -11.328125 L 5.859375 -10.8125 L 5.296875 -10.8125 C 4.796875 -10.8125 4.425781 -10.773438 4.1875 -10.703125 C 3.957031 -10.640625 3.820312 -10.5625 3.78125 -10.46875 C 3.75 -10.382812 3.734375 -10.234375 3.734375 -10.015625 L 3.734375 -1.171875 C 3.734375 -0.890625 3.773438 -0.707031 3.859375 -0.625 C 3.941406 -0.550781 4.171875 -0.515625 4.546875 -0.515625 L 5.90625 -0.515625 C 6.46875 -0.515625 6.945312 -0.597656 7.34375 -0.765625 C 7.75 -0.929688 8.0625 -1.117188 8.28125 -1.328125 C 8.5 -1.535156 8.675781 -1.835938 8.8125 -2.234375 C 8.957031 -2.628906 9.050781 -2.953125 9.09375 -3.203125 C 9.144531 -3.460938 9.191406 -3.820312 9.234375 -4.28125 L 9.65625 -4.28125 L 9.1875 0 Z M 0.546875 0 "/></g></g><g style="fill:#353839;fill-opacity:1;"><g transform="translate(181.359077, 191.899785)"><path style="stroke:none" d="M 0.53125 0 L 0.53125 -0.515625 C 1.507812 -0.535156 2.128906 -0.90625 2.390625 -1.625 L 5.8125 -11.53125 C 5.863281 -11.664062 5.910156 -11.753906 5.953125 -11.796875 C 6.003906 -11.835938 6.09375 -11.859375 6.21875 -11.859375 C 6.28125 -11.859375 6.332031 -11.851562 6.375 -11.84375 C 6.414062 -11.832031 6.445312 -11.804688 6.46875 -11.765625 C 6.5 -11.734375 6.519531 -11.707031 6.53125 -11.6875 C 6.539062 -11.664062 6.5625 -11.613281 6.59375 -11.53125 L 10.171875 -1.171875 C 10.253906 -0.898438 10.382812 -0.722656 10.5625 -0.640625 C 10.75 -0.554688 11.09375 -0.515625 11.59375 -0.515625 L 11.890625 -0.515625 L 11.890625 0 C 11.191406 -0.03125 10.46875 -0.046875 9.71875 -0.046875 C 8.519531 -0.046875 7.722656 -0.03125 7.328125 0 L 7.328125 -0.515625 C 8.242188 -0.515625 8.703125 -0.679688 8.703125 -1.015625 C 8.703125 -1.035156 8.6875 -1.113281 8.65625 -1.25 L 7.78125 -3.78125 L 3.6875 -3.78125 L 2.921875 -1.609375 C 2.890625 -1.566406 2.875 -1.484375 2.875 -1.359375 C 2.875 -1.128906 2.984375 -0.929688 3.203125 -0.765625 C 3.421875 -0.597656 3.726562 -0.515625 4.125 -0.515625 L 4.125 0 C 3.0625 -0.03125 2.425781 -0.046875 2.21875 -0.046875 C 1.851562 -0.046875 1.289062 -0.03125 0.53125 0 Z M 3.859375 -4.296875 L 7.59375 -4.296875 L 5.71875 -9.6875 Z M 3.859375 -4.296875 "/></g></g><g style="fill:#353839;fill-opacity:1;"><g transform="translate(196.344039, 191.899785)"><path style="stroke:none" d="M 0.546875 0 L 0.546875 -0.515625 L 0.953125 -0.515625 C 1.546875 -0.515625 1.910156 -0.5625 2.046875 -0.65625 C 2.191406 -0.757812 2.265625 -0.972656 2.265625 -1.296875 L 2.265625 -10.03125 C 2.265625 -10.34375 2.191406 -10.550781 2.046875 -10.65625 C 1.910156 -10.757812 1.546875 -10.8125 0.953125 -10.8125 L 0.546875 -10.8125 L 0.546875 -11.328125 C 0.941406 -11.296875 1.757812 -11.28125 3 -11.28125 C 4.238281 -11.28125 5.050781 -11.296875 5.4375 -11.328125 L 5.4375 -10.8125 L 5.046875 -10.8125 C 4.441406 -10.8125 4.070312 -10.757812 3.9375 -10.65625 C 3.800781 -10.550781 3.734375 -10.34375 3.734375 -10.03125 L 3.734375 -6.15625 L 8.6875 -6.15625 L 8.6875 -10.03125 C 8.6875 -10.34375 8.613281 -10.550781 8.46875 -10.65625 C 8.332031 -10.757812 7.96875 -10.8125 7.375 -10.8125 L 6.984375 -10.8125 L 6.984375 -11.328125 C 7.367188 -11.296875 8.1875 -11.28125 9.4375 -11.28125 C 10.664062 -11.28125 11.472656 -11.296875 11.859375 -11.328125 L 11.859375 -10.8125 L 11.46875 -10.8125 C 10.875 -10.8125 10.503906 -10.757812 10.359375 -10.65625 C 10.222656 -10.550781 10.15625 -10.34375 10.15625 -10.03125 L 10.15625 -1.296875 C 10.15625 -0.972656 10.222656 -0.757812 10.359375 -0.65625 C 10.503906 -0.5625 10.875 -0.515625 11.46875 -0.515625 L 11.859375 -0.515625 L 11.859375 0 C 11.472656 -0.03125 10.660156 -0.046875 9.421875 -0.046875 C 8.179688 -0.046875 7.367188 -0.03125 6.984375 0 L 6.984375 -0.515625 L 7.375 -0.515625 C 7.96875 -0.515625 8.332031 -0.5625 8.46875 -0.65625 C 8.613281 -0.757812 8.6875 -0.972656 8.6875 -1.296875 L 8.6875 -5.640625 L 3.734375 -5.640625 L 3.734375 -1.296875 C 3.734375 -0.972656 3.800781 -0.757812 3.9375 -0.65625 C 4.070312 -0.5625 4.441406 -0.515625 5.046875 -0.515625 L 5.4375 -0.515625 L 5.4375 0 C 5.050781 -0.03125 4.234375 -0.046875 2.984375 -0.046875 C 1.753906 -0.046875 0.941406 -0.03125 0.546875 0 Z M 0.546875 0 "/></g></g><g style="fill:#353839;fill-opacity:1;"><g transform="translate(211.329, 191.899785)"><path style="stroke:none" d=""/></g></g><g style="fill:#353839;fill-opacity:1;"><g transform="translate(219.394541, 191.899785)"><path style="stroke:none" d="M 0.296875 -10.8125 L 0.296875 -11.328125 C 0.453125 -11.328125 0.671875 -11.320312 0.953125 -11.3125 C 1.234375 -11.300781 1.484375 -11.289062 1.703125 -11.28125 C 1.929688 -11.28125 2.140625 -11.28125 2.328125 -11.28125 C 3.492188 -11.28125 4.273438 -11.296875 4.671875 -11.328125 L 4.671875 -10.8125 C 3.742188 -10.8125 3.28125 -10.644531 3.28125 -10.3125 C 3.28125 -10.238281 3.289062 -10.164062 3.3125 -10.09375 L 5.984375 -1.9375 L 8.296875 -9.046875 L 7.921875 -10.21875 C 7.835938 -10.488281 7.703125 -10.65625 7.515625 -10.71875 C 7.328125 -10.78125 6.96875 -10.8125 6.4375 -10.8125 L 6.4375 -11.328125 C 6.59375 -11.328125 6.8125 -11.320312 7.09375 -11.3125 C 7.375 -11.300781 7.625 -11.289062 7.84375 -11.28125 C 8.0625 -11.28125 8.265625 -11.28125 8.453125 -11.28125 C 9.617188 -11.28125 10.40625 -11.296875 10.8125 -11.328125 L 10.8125 -10.8125 C 9.882812 -10.8125 9.421875 -10.644531 9.421875 -10.3125 C 9.421875 -10.28125 9.4375 -10.195312 9.46875 -10.0625 L 12.125 -1.9375 L 14.609375 -9.59375 C 14.660156 -9.757812 14.6875 -9.875 14.6875 -9.9375 C 14.6875 -10.132812 14.570312 -10.328125 14.34375 -10.515625 C 14.113281 -10.703125 13.75 -10.800781 13.25 -10.8125 L 13.25 -11.328125 C 14.101562 -11.296875 14.757812 -11.28125 15.21875 -11.28125 C 15.726562 -11.28125 16.226562 -11.296875 16.71875 -11.328125 L 16.71875 -10.8125 C 15.84375 -10.8125 15.296875 -10.441406 15.078125 -9.703125 L 11.90625 0.03125 C 11.875 0.113281 11.847656 0.175781 11.828125 0.21875 C 11.816406 0.257812 11.789062 0.289062 11.75 0.3125 C 11.707031 0.34375 11.648438 0.359375 11.578125 0.359375 C 11.429688 0.359375 11.328125 0.253906 11.265625 0.046875 L 8.5 -8.390625 L 5.765625 0.03125 C 5.742188 0.113281 5.722656 0.175781 5.703125 0.21875 C 5.691406 0.257812 5.660156 0.289062 5.609375 0.3125 C 5.566406 0.34375 5.507812 0.359375 5.4375 0.359375 C 5.289062 0.359375 5.1875 0.253906 5.125 0.046875 L 1.8125 -10.109375 C 1.707031 -10.429688 1.582031 -10.628906 1.4375 -10.703125 C 1.289062 -10.773438 0.910156 -10.8125 0.296875 -10.8125 Z M 0.296875 -10.8125 "/></g></g><g style="fill:#353839;fill-opacity:1;"><g transform="translate(238.968171, 191.899785)"><path style="stroke:none" d="M 0.53125 0 L 0.53125 -0.515625 C 1.507812 -0.535156 2.128906 -0.90625 2.390625 -1.625 L 5.8125 -11.53125 C 5.863281 -11.664062 5.910156 -11.753906 5.953125 -11.796875 C 6.003906 -11.835938 6.09375 -11.859375 6.21875 -11.859375 C 6.28125 -11.859375 6.332031 -11.851562 6.375 -11.84375 C 6.414062 -11.832031 6.445312 -11.804688 6.46875 -11.765625 C 6.5 -11.734375 6.519531 -11.707031 6.53125 -11.6875 C 6.539062 -11.664062 6.5625 -11.613281 6.59375 -11.53125 L 10.171875 -1.171875 C 10.253906 -0.898438 10.382812 -0.722656 10.5625 -0.640625 C 10.75 -0.554688 11.09375 -0.515625 11.59375 -0.515625 L 11.890625 -0.515625 L 11.890625 0 C 11.191406 -0.03125 10.46875 -0.046875 9.71875 -0.046875 C 8.519531 -0.046875 7.722656 -0.03125 7.328125 0 L 7.328125 -0.515625 C 8.242188 -0.515625 8.703125 -0.679688 8.703125 -1.015625 C 8.703125 -1.035156 8.6875 -1.113281 8.65625 -1.25 L 7.78125 -3.78125 L 3.6875 -3.78125 L 2.921875 -1.609375 C 2.890625 -1.566406 2.875 -1.484375 2.875 -1.359375 C 2.875 -1.128906 2.984375 -0.929688 3.203125 -0.765625 C 3.421875 -0.597656 3.726562 -0.515625 4.125 -0.515625 L 4.125 0 C 3.0625 -0.03125 2.425781 -0.046875 2.21875 -0.046875 C 1.851562 -0.046875 1.289062 -0.03125 0.53125 0 Z M 3.859375 -4.296875 L 7.59375 -4.296875 L 5.71875 -9.6875 Z M 3.859375 -4.296875 "/></g></g><g style="fill:#353839;fill-opacity:1;"><g transform="translate(253.95314, 191.899785)"><path style="stroke:none" d="M 0.546875 0 L 0.546875 -0.515625 L 0.953125 -0.515625 C 1.546875 -0.515625 1.910156 -0.5625 2.046875 -0.65625 C 2.191406 -0.757812 2.265625 -0.972656 2.265625 -1.296875 L 2.265625 -10.03125 C 2.265625 -10.34375 2.191406 -10.550781 2.046875 -10.65625 C 1.910156 -10.757812 1.546875 -10.8125 0.953125 -10.8125 L 0.546875 -10.8125 L 0.546875 -11.328125 C 0.941406 -11.296875 1.757812 -11.28125 3 -11.28125 C 4.238281 -11.28125 5.050781 -11.296875 5.4375 -11.328125 L 5.4375 -10.8125 L 5.046875 -10.8125 C 4.441406 -10.8125 4.070312 -10.757812 3.9375 -10.65625 C 3.800781 -10.550781 3.734375 -10.34375 3.734375 -10.03125 L 3.734375 -6.15625 L 8.6875 -6.15625 L 8.6875 -10.03125 C 8.6875 -10.34375 8.613281 -10.550781 8.46875 -10.65625 C 8.332031 -10.757812 7.96875 -10.8125 7.375 -10.8125 L 6.984375 -10.8125 L 6.984375 -11.328125 C 7.367188 -11.296875 8.1875 -11.28125 9.4375 -11.28125 C 10.664062 -11.28125 11.472656 -11.296875 11.859375 -11.328125 L 11.859375 -10.8125 L 11.46875 -10.8125 C 10.875 -10.8125 10.503906 -10.757812 10.359375 -10.65625 C 10.222656 -10.550781 10.15625 -10.34375 10.15625 -10.03125 L 10.15625 -1.296875 C 10.15625 -0.972656 10.222656 -0.757812 10.359375 -0.65625 C 10.503906 -0.5625 10.875 -0.515625 11.46875 -0.515625 L 11.859375 -0.515625 L 11.859375 0 C 11.472656 -0.03125 10.660156 -0.046875 9.421875 -0.046875 C 8.179688 -0.046875 7.367188 -0.03125 6.984375 0 L 6.984375 -0.515625 L 7.375 -0.515625 C 7.96875 -0.515625 8.332031 -0.5625 8.46875 -0.65625 C 8.613281 -0.757812 8.6875 -0.972656 8.6875 -1.296875 L 8.6875 -5.640625 L 3.734375 -5.640625 L 3.734375 -1.296875 C 3.734375 -0.972656 3.800781 -0.757812 3.9375 -0.65625 C 4.070312 -0.5625 4.441406 -0.515625 5.046875 -0.515625 L 5.4375 -0.515625 L 5.4375 0 C 5.050781 -0.03125 4.234375 -0.046875 2.984375 -0.046875 C 1.753906 -0.046875 0.941406 -0.03125 0.546875 0 Z M 0.546875 0 "/></g></g><g style="fill:#353839;fill-opacity:1;"><g transform="translate(268.938094, 191.899785)"><path style="stroke:none" d="M 0.46875 0 L 0.46875 -0.515625 L 0.90625 -0.515625 C 1.519531 -0.515625 1.898438 -0.5625 2.046875 -0.65625 C 2.191406 -0.757812 2.265625 -0.972656 2.265625 -1.296875 L 2.265625 -10.03125 C 2.265625 -10.34375 2.191406 -10.550781 2.046875 -10.65625 C 1.898438 -10.757812 1.519531 -10.8125 0.90625 -10.8125 L 0.46875 -10.8125 L 0.46875 -11.328125 C 0.851562 -11.296875 1.695312 -11.28125 3 -11.28125 C 4.300781 -11.28125 5.140625 -11.296875 5.515625 -11.328125 L 5.515625 -10.8125 L 5.09375 -10.8125 C 4.46875 -10.8125 4.082031 -10.757812 3.9375 -10.65625 C 3.800781 -10.550781 3.734375 -10.34375 3.734375 -10.03125 L 3.734375 -1.296875 C 3.734375 -0.972656 3.800781 -0.757812 3.9375 -0.65625 C 4.082031 -0.5625 4.46875 -0.515625 5.09375 -0.515625 L 5.515625 -0.515625 L 5.515625 0 C 5.128906 -0.03125 4.285156 -0.046875 2.984375 -0.046875 C 1.691406 -0.046875 0.851562 -0.03125 0.46875 0 Z M 0.46875 0 "/></g></g><g style="fill:#353839;fill-opacity:1;"><g transform="translate(277.473015, 191.899785)"><path style="stroke:none" d="M 0.578125 0 L 0.578125 -0.515625 L 0.984375 -0.515625 C 1.578125 -0.515625 1.941406 -0.5625 2.078125 -0.65625 C 2.222656 -0.757812 2.296875 -0.972656 2.296875 -1.296875 L 2.296875 -10.03125 C 2.296875 -10.34375 2.222656 -10.550781 2.078125 -10.65625 C 1.941406 -10.757812 1.578125 -10.8125 0.984375 -10.8125 L 0.578125 -10.8125 L 0.578125 -11.328125 L 6.640625 -11.328125 C 8.054688 -11.328125 9.253906 -10.757812 10.234375 -9.625 C 11.222656 -8.5 11.71875 -7.144531 11.71875 -5.5625 C 11.71875 -4.019531 11.222656 -2.707031 10.234375 -1.625 C 9.242188 -0.539062 8.046875 0 6.640625 0 Z M 3.71875 -1.171875 C 3.71875 -0.890625 3.753906 -0.707031 3.828125 -0.625 C 3.910156 -0.550781 4.144531 -0.515625 4.53125 -0.515625 L 6.203125 -0.515625 C 6.929688 -0.515625 7.539062 -0.660156 8.03125 -0.953125 C 8.519531 -1.253906 8.890625 -1.578125 9.140625 -1.921875 C 9.753906 -2.753906 10.0625 -3.96875 10.0625 -5.5625 C 10.0625 -7.25 9.773438 -8.484375 9.203125 -9.265625 C 8.460938 -10.296875 7.457031 -10.8125 6.1875 -10.8125 L 4.53125 -10.8125 C 4.144531 -10.8125 3.910156 -10.769531 3.828125 -10.6875 C 3.753906 -10.613281 3.71875 -10.429688 3.71875 -10.140625 Z M 3.71875 -1.171875 "/></g></g><g style="fill:#1848a0;fill-opacity:1;"><g transform="translate(147.204149, 242.535258)"><path style="stroke:none" d="M 3.515625 0.109375 C 3.078125 0.109375 2.671875 0.0351562 2.296875 -0.109375 C 1.929688 -0.265625 1.613281 -0.476562 1.34375 -0.75 C 1.070312 -1.03125 0.859375 -1.359375 0.703125 -1.734375 C 0.554688 -2.109375 0.484375 -2.519531 0.484375 -2.96875 C 0.484375 -3.414062 0.554688 -3.828125 0.703125 -4.203125 C 0.859375 -4.578125 1.070312 -4.898438 1.34375 -5.171875 C 1.613281 -5.453125 1.929688 -5.664062 2.296875 -5.8125 C 2.660156 -5.96875 3.0625 -6.046875 3.5 -6.046875 C 3.945312 -6.046875 4.363281 -5.960938 4.75 -5.796875 C 5.132812 -5.640625 5.46875 -5.410156 5.75 -5.109375 C 6.03125 -4.816406 6.234375 -4.476562 6.359375 -4.09375 L 5.546875 -4.09375 C 5.359375 -4.476562 5.085938 -4.773438 4.734375 -4.984375 C 4.378906 -5.191406 3.972656 -5.296875 3.515625 -5.296875 C 3.078125 -5.296875 2.6875 -5.195312 2.34375 -5 C 2 -4.800781 1.726562 -4.523438 1.53125 -4.171875 C 1.34375 -3.828125 1.25 -3.425781 1.25 -2.96875 C 1.25 -2.507812 1.347656 -2.101562 1.546875 -1.75 C 1.742188 -1.40625 2.015625 -1.132812 2.359375 -0.9375 C 2.703125 -0.738281 3.09375 -0.640625 3.53125 -0.640625 C 3.925781 -0.640625 4.28125 -0.71875 4.59375 -0.875 C 4.90625 -1.03125 5.160156 -1.25 5.359375 -1.53125 C 5.554688 -1.8125 5.679688 -2.140625 5.734375 -2.515625 L 3.3125 -2.515625 L 3.3125 -3.21875 L 6.53125 -3.21875 C 6.539062 -2.570312 6.421875 -2 6.171875 -1.5 C 5.921875 -1 5.566406 -0.601562 5.109375 -0.3125 C 4.648438 -0.03125 4.117188 0.109375 3.515625 0.109375 Z M 3.515625 0.109375 "/></g></g><g style="fill:#1848a0;fill-opacity:1;"><g transform="translate(160.993984, 242.535258)"><path style="stroke:none" d="M 0.859375 0 L 0.859375 -5.9375 L 3.125 -5.9375 C 3.539062 -5.9375 3.898438 -5.859375 4.203125 -5.703125 C 4.515625 -5.546875 4.753906 -5.328125 4.921875 -5.046875 C 5.085938 -4.765625 5.171875 -4.425781 5.171875 -4.03125 C 5.171875 -3.550781 5.046875 -3.148438 4.796875 -2.828125 C 4.546875 -2.515625 4.207031 -2.304688 3.78125 -2.203125 L 5.265625 0 L 4.375 0 L 2.921875 -2.125 L 1.609375 -2.125 L 1.609375 0 Z M 1.609375 -2.84375 L 3.046875 -2.84375 C 3.484375 -2.84375 3.816406 -2.945312 4.046875 -3.15625 C 4.285156 -3.363281 4.40625 -3.65625 4.40625 -4.03125 C 4.40625 -4.40625 4.285156 -4.695312 4.046875 -4.90625 C 3.816406 -5.113281 3.484375 -5.21875 3.046875 -5.21875 L 1.609375 -5.21875 Z M 1.609375 -2.84375 "/></g></g><g style="fill:#1848a0;fill-opacity:1;"><g transform="translate(173.561987, 242.535258)"><path style="stroke:none" d="M 0.140625 0 L 2.59375 -5.9375 L 3.28125 -5.9375 L 5.734375 0 L 4.9375 0 L 4.375 -1.34375 L 1.484375 -1.34375 L 0.9375 0 Z M 1.765625 -2.046875 L 4.09375 -2.046875 L 2.9375 -4.890625 Z M 1.765625 -2.046875 "/></g></g><g style="fill:#1848a0;fill-opacity:1;"><g transform="translate(186.223328, 242.535258)"><path style="stroke:none" d="M 0.859375 0 L 0.859375 -5.9375 L 2.875 -5.9375 C 3.320312 -5.9375 3.710938 -5.851562 4.046875 -5.6875 C 4.378906 -5.53125 4.632812 -5.300781 4.8125 -5 C 4.988281 -4.707031 5.078125 -4.351562 5.078125 -3.9375 C 5.078125 -3.53125 4.988281 -3.175781 4.8125 -2.875 C 4.632812 -2.582031 4.378906 -2.351562 4.046875 -2.1875 C 3.710938 -2.03125 3.320312 -1.953125 2.875 -1.953125 L 1.609375 -1.953125 L 1.609375 0 Z M 1.609375 -2.640625 L 2.859375 -2.640625 C 3.828125 -2.640625 4.3125 -3.070312 4.3125 -3.9375 C 4.3125 -4.789062 3.828125 -5.21875 2.859375 -5.21875 L 1.609375 -5.21875 Z M 1.609375 -2.640625 "/></g></g><g style="fill:#1848a0;fill-opacity:1;"><g transform="translate(198.434963, 242.535258)"><path style="stroke:none" d="M 4.765625 0 L 4.765625 -2.671875 L 1.609375 -2.671875 L 1.609375 0 L 0.859375 0 L 0.859375 -5.9375 L 1.609375 -5.9375 L 1.609375 -3.390625 L 4.765625 -3.390625 L 4.765625 -5.9375 L 5.5 -5.9375 L 5.5 0 Z M 4.765625 0 "/></g></g><g style="fill:#1848a0;fill-opacity:1;"><g transform="translate(211.596915, 242.535258)"><path style="stroke:none" d="M 0.859375 0 L 0.859375 -5.9375 L 1.609375 -5.9375 L 1.609375 0 Z M 0.859375 0 "/></g></g><g style="fill:#1848a0;fill-opacity:1;"><g transform="translate(220.864271, 242.535258)"><path style="stroke:none" d="M 3.5 0.109375 C 3.0625 0.109375 2.65625 0.0351562 2.28125 -0.109375 C 1.914062 -0.265625 1.597656 -0.476562 1.328125 -0.75 C 1.066406 -1.03125 0.859375 -1.359375 0.703125 -1.734375 C 0.554688 -2.109375 0.484375 -2.519531 0.484375 -2.96875 C 0.484375 -3.414062 0.554688 -3.828125 0.703125 -4.203125 C 0.859375 -4.578125 1.066406 -4.898438 1.328125 -5.171875 C 1.597656 -5.453125 1.914062 -5.664062 2.28125 -5.8125 C 2.65625 -5.96875 3.0625 -6.046875 3.5 -6.046875 C 3.96875 -6.046875 4.394531 -5.957031 4.78125 -5.78125 C 5.175781 -5.613281 5.515625 -5.367188 5.796875 -5.046875 C 6.078125 -4.734375 6.285156 -4.359375 6.421875 -3.921875 L 5.609375 -3.921875 C 5.460938 -4.347656 5.203125 -4.679688 4.828125 -4.921875 C 4.453125 -5.171875 4.015625 -5.296875 3.515625 -5.296875 C 3.078125 -5.296875 2.6875 -5.195312 2.34375 -5 C 2.007812 -4.800781 1.742188 -4.523438 1.546875 -4.171875 C 1.347656 -3.828125 1.25 -3.425781 1.25 -2.96875 C 1.25 -2.507812 1.347656 -2.101562 1.546875 -1.75 C 1.742188 -1.40625 2.007812 -1.132812 2.34375 -0.9375 C 2.6875 -0.738281 3.078125 -0.640625 3.515625 -0.640625 C 4.023438 -0.640625 4.472656 -0.769531 4.859375 -1.03125 C 5.253906 -1.289062 5.523438 -1.644531 5.671875 -2.09375 L 6.46875 -2.09375 C 6.34375 -1.644531 6.140625 -1.253906 5.859375 -0.921875 C 5.578125 -0.597656 5.234375 -0.34375 4.828125 -0.15625 C 4.421875 0.0195312 3.976562 0.109375 3.5 0.109375 Z M 3.5 0.109375 "/></g></g><g style="fill:#1848a0;fill-opacity:1;"><g transform="translate(141.789344, 254.048464)"><path style="stroke:none" d="M 0.859375 0 L 0.859375 -5.9375 L 2.921875 -5.9375 C 3.523438 -5.9375 4.054688 -5.8125 4.515625 -5.5625 C 4.972656 -5.3125 5.328125 -4.960938 5.578125 -4.515625 C 5.835938 -4.078125 5.96875 -3.5625 5.96875 -2.96875 C 5.96875 -2.382812 5.835938 -1.867188 5.578125 -1.421875 C 5.328125 -0.972656 4.972656 -0.625 4.515625 -0.375 C 4.054688 -0.125 3.523438 0 2.921875 0 Z M 1.609375 -0.71875 L 2.921875 -0.71875 C 3.367188 -0.71875 3.765625 -0.8125 4.109375 -1 C 4.453125 -1.1875 4.71875 -1.445312 4.90625 -1.78125 C 5.101562 -2.125 5.203125 -2.519531 5.203125 -2.96875 C 5.203125 -3.414062 5.101562 -3.804688 4.90625 -4.140625 C 4.707031 -4.484375 4.4375 -4.75 4.09375 -4.9375 C 3.75 -5.125 3.347656 -5.21875 2.890625 -5.21875 L 1.609375 -5.21875 Z M 1.609375 -0.71875 "/></g></g><g style="fill:#1848a0;fill-opacity:1;"><g transform="translate(155.036142, 254.048464)"><path style="stroke:none" d="M 0.859375 0 L 0.859375 -5.9375 L 4.46875 -5.9375 L 4.46875 -5.25 L 1.609375 -5.25 L 1.609375 -3.375 L 4.265625 -3.375 L 4.265625 -2.6875 L 1.609375 -2.6875 L 1.609375 -0.703125 L 4.5625 -0.703125 L 4.5625 0 Z M 0.859375 0 "/></g></g><g style="fill:#1848a0;fill-opacity:1;"><g transform="translate(166.942321, 254.048464)"><path style="stroke:none" d="M 2.84375 0.109375 C 2.363281 0.109375 1.953125 0.03125 1.609375 -0.125 C 1.265625 -0.289062 0.992188 -0.519531 0.796875 -0.8125 C 0.609375 -1.101562 0.515625 -1.441406 0.515625 -1.828125 L 1.25 -1.828125 C 1.257812 -1.441406 1.410156 -1.140625 1.703125 -0.921875 C 1.992188 -0.710938 2.375 -0.609375 2.84375 -0.609375 C 3.257812 -0.609375 3.585938 -0.6875 3.828125 -0.84375 C 4.078125 -1.007812 4.203125 -1.238281 4.203125 -1.53125 C 4.203125 -1.8125 4.082031 -2.035156 3.84375 -2.203125 C 3.613281 -2.367188 3.226562 -2.515625 2.6875 -2.640625 C 1.957031 -2.816406 1.421875 -3.039062 1.078125 -3.3125 C 0.742188 -3.582031 0.578125 -3.945312 0.578125 -4.40625 C 0.578125 -4.914062 0.765625 -5.316406 1.140625 -5.609375 C 1.523438 -5.898438 2.046875 -6.046875 2.703125 -6.046875 C 3.367188 -6.046875 3.894531 -5.878906 4.28125 -5.546875 C 4.664062 -5.210938 4.863281 -4.757812 4.875 -4.1875 L 4.125 -4.1875 C 4.125 -4.539062 3.992188 -4.820312 3.734375 -5.03125 C 3.472656 -5.238281 3.128906 -5.34375 2.703125 -5.34375 C 2.273438 -5.34375 1.941406 -5.257812 1.703125 -5.09375 C 1.460938 -4.925781 1.34375 -4.695312 1.34375 -4.40625 C 1.34375 -4.164062 1.453125 -3.960938 1.671875 -3.796875 C 1.898438 -3.628906 2.300781 -3.472656 2.875 -3.328125 C 3.632812 -3.140625 4.175781 -2.90625 4.5 -2.625 C 4.820312 -2.351562 4.984375 -2 4.984375 -1.5625 C 4.984375 -1.039062 4.785156 -0.628906 4.390625 -0.328125 C 4.003906 -0.0351562 3.488281 0.109375 2.84375 0.109375 Z M 2.84375 0.109375 "/></g></g><g style="fill:#1848a0;fill-opacity:1;"><g transform="translate(179.221839, 254.048464)"><path style="stroke:none" d="M 0.859375 0 L 0.859375 -5.9375 L 1.609375 -5.9375 L 1.609375 0 Z M 0.859375 0 "/></g></g><g style="fill:#1848a0;fill-opacity:1;"><g transform="translate(188.489194, 254.048464)"><path style="stroke:none" d="M 3.515625 0.109375 C 3.078125 0.109375 2.671875 0.0351562 2.296875 -0.109375 C 1.929688 -0.265625 1.613281 -0.476562 1.34375 -0.75 C 1.070312 -1.03125 0.859375 -1.359375 0.703125 -1.734375 C 0.554688 -2.109375 0.484375 -2.519531 0.484375 -2.96875 C 0.484375 -3.414062 0.554688 -3.828125 0.703125 -4.203125 C 0.859375 -4.578125 1.070312 -4.898438 1.34375 -5.171875 C 1.613281 -5.453125 1.929688 -5.664062 2.296875 -5.8125 C 2.660156 -5.96875 3.0625 -6.046875 3.5 -6.046875 C 3.945312 -6.046875 4.363281 -5.960938 4.75 -5.796875 C 5.132812 -5.640625 5.46875 -5.410156 5.75 -5.109375 C 6.03125 -4.816406 6.234375 -4.476562 6.359375 -4.09375 L 5.546875 -4.09375 C 5.359375 -4.476562 5.085938 -4.773438 4.734375 -4.984375 C 4.378906 -5.191406 3.972656 -5.296875 3.515625 -5.296875 C 3.078125 -5.296875 2.6875 -5.195312 2.34375 -5 C 2 -4.800781 1.726562 -4.523438 1.53125 -4.171875 C 1.34375 -3.828125 1.25 -3.425781 1.25 -2.96875 C 1.25 -2.507812 1.347656 -2.101562 1.546875 -1.75 C 1.742188 -1.40625 2.015625 -1.132812 2.359375 -0.9375 C 2.703125 -0.738281 3.09375 -0.640625 3.53125 -0.640625 C 3.925781 -0.640625 4.28125 -0.71875 4.59375 -0.875 C 4.90625 -1.03125 5.160156 -1.25 5.359375 -1.53125 C 5.554688 -1.8125 5.679688 -2.140625 5.734375 -2.515625 L 3.3125 -2.515625 L 3.3125 -3.21875 L 6.53125 -3.21875 C 6.539062 -2.570312 6.421875 -2 6.171875 -1.5 C 5.921875 -1 5.566406 -0.601562 5.109375 -0.3125 C 4.648438 -0.03125 4.117188 0.109375 3.515625 0.109375 Z M 3.515625 0.109375 "/></g></g><g style="fill:#1848a0;fill-opacity:1;"><g transform="translate(202.279029, 254.048464)"><path style="stroke:none" d="M 0.859375 0 L 0.859375 -5.9375 L 1.5625 -5.9375 L 4.859375 -1.296875 L 4.859375 -5.9375 L 5.578125 -5.9375 L 5.578125 0 L 4.890625 0 L 1.609375 -4.65625 L 1.609375 0 Z M 0.859375 0 "/></g></g><g style="fill:#1848a0;fill-opacity:1;"><g transform="translate(215.517342, 254.048464)"><path style="stroke:none" d="M 0.859375 0 L 0.859375 -5.9375 L 4.46875 -5.9375 L 4.46875 -5.25 L 1.609375 -5.25 L 1.609375 -3.375 L 4.265625 -3.375 L 4.265625 -2.6875 L 1.609375 -2.6875 L 1.609375 -0.703125 L 4.5625 -0.703125 L 4.5625 0 Z M 0.859375 0 "/></g></g><g style="fill:#1848a0;fill-opacity:1;"><g transform="translate(227.423521, 254.048464)"><path style="stroke:none" d="M 0.859375 0 L 0.859375 -5.9375 L 3.125 -5.9375 C 3.539062 -5.9375 3.898438 -5.859375 4.203125 -5.703125 C 4.515625 -5.546875 4.753906 -5.328125 4.921875 -5.046875 C 5.085938 -4.765625 5.171875 -4.425781 5.171875 -4.03125 C 5.171875 -3.550781 5.046875 -3.148438 4.796875 -2.828125 C 4.546875 -2.515625 4.207031 -2.304688 3.78125 -2.203125 L 5.265625 0 L 4.375 0 L 2.921875 -2.125 L 1.609375 -2.125 L 1.609375 0 Z M 1.609375 -2.84375 L 3.046875 -2.84375 C 3.484375 -2.84375 3.816406 -2.945312 4.046875 -3.15625 C 4.285156 -3.363281 4.40625 -3.65625 4.40625 -4.03125 C 4.40625 -4.40625 4.285156 -4.695312 4.046875 -4.90625 C 3.816406 -5.113281 3.484375 -5.21875 3.046875 -5.21875 L 1.609375 -5.21875 Z M 1.609375 -2.84375 "/></g></g></g></svg>